<?xml version="1.0" encoding="UTF-8"?>
<!DOCTYPE svg PUBLIC "-//W3C//DTD SVG 1.1//EN" "http://www.w3.org/Graphics/SVG/1.1/DTD/svg11.dtd">
<!-- Creator: CorelDRAW 2021 (64-Bit) -->
<svg xmlns="http://www.w3.org/2000/svg" xml:space="preserve" width="10.313cm" height="11.6873cm" version="1.1" style="shape-rendering:geometricPrecision; text-rendering:geometricPrecision; image-rendering:optimizeQuality; fill-rule:evenodd; clip-rule:evenodd"
viewBox="0 0 2666.97 3022.38"
 xmlns:xlink="http://www.w3.org/1999/xlink"
 xmlns:xodm="http://www.corel.com/coreldraw/odm/2003">
 <defs>
  <style type="text/css">
   <![CDATA[
    .str0 {stroke:#15804B;stroke-width:1.97;stroke-miterlimit:10}
    .fil8 {fill:#F58634}
    .fil5 {fill:#7EB74D}
    .fil2 {fill:#15804B}
    .fil4 {fill:white}
    .fil3 {fill:url(#id0)}
    .fil6 {fill:url(#id1)}
    .fil7 {fill:url(#id2)}
    .fil1 {fill:url(#id3)}
    .fil0 {fill:url(#id4)}
   ]]>
  </style>
  <linearGradient id="id0" gradientUnits="userSpaceOnUse" x1="2078.11" y1="1355.98" x2="893.96" y2="1296.14">
   <stop offset="0" style="stop-opacity:1; stop-color:#15804B"/>
   <stop offset="1" style="stop-opacity:1; stop-color:#7EB74D"/>
  </linearGradient>
  <linearGradient id="id1" gradientUnits="userSpaceOnUse" xlink:href="#id0" x1="1359.5" y1="1481.7" x2="1195.56" y2="1454.24">
  </linearGradient>
  <linearGradient id="id2" gradientUnits="userSpaceOnUse" xlink:href="#id0" x1="2378.78" y1="1489.17" x2="1858.62" y2="1461.37">
  </linearGradient>
  <linearGradient id="id3" gradientUnits="userSpaceOnUse" x1="292.15" y1="760.28" x2="1866.27" y2="860.83">
   <stop offset="0" style="stop-opacity:1; stop-color:#7EB74D"/>
   <stop offset="1" style="stop-opacity:1; stop-color:#15804B"/>
  </linearGradient>
  <linearGradient id="id4" gradientUnits="userSpaceOnUse" xlink:href="#id0" x1="1596.88" y1="378.01" x2="1348.28" y2="245.36">
  </linearGradient>
 </defs>
 <g id="Layer_x0020_1">
  <metadata id="CorelCorpID_0Corel-Layer"/>
  <path class="fil0" d="M814.66 0l-4.47 0c2.82,10.58 24.7,33.46 33.5,42.06l36.66 42.34c6.87,8.77 10.01,11.36 17.2,20.58 152.67,195.53 125.65,201.8 229.26,354.62 10.79,15.91 21.93,30.17 34.47,44.53 41.12,47.12 74.53,77.06 136.98,96.58 34.48,10.78 110.41,11.34 140.46,-3.08 -7.01,-14.63 -23.25,-91.4 -61.82,-168.3 -51.88,-103.42 -109.29,-185.14 -204.06,-259.62 -23.09,-18.15 -43.97,-31.57 -68.63,-48.15 -28.39,-19.08 -40.25,-22.71 -63.95,-35.64l-4.38 -2.55c-6.82,-4.34 -2.3,-1.27 -5.88,-4.38 35.24,8.21 123.45,57.75 150.49,76.2 58.61,39.99 71.92,57.04 113.61,99.86 0.49,0.5 1.24,1.2 1.72,1.7 33.88,34.83 73.47,98.93 94.82,141.66 17.88,35.79 57.9,127.76 61.82,166.92 29.73,76.26 -6.52,153.03 46.31,264.76 16.72,-4.02 34.44,-8.61 53.24,-13.74 -0.17,-7.68 -0.28,-15.43 -0.05,-23.07 3.01,-100.91 24.84,-157.5 49.89,-243.75 4.21,-8.24 8.2,-19.71 11.51,-28 23.6,-59.21 77.32,-145.39 116.19,-192.89 36.1,-40.36 69.31,-74.99 106.77,-113.09 36.55,-37.19 59.21,-38.69 59.21,-74.73 -46.36,-24.53 -180.46,-13.11 -199.81,-0.61 -27.7,17.91 -103.09,141.59 -128.46,184.09 -25.98,43.5 -65.51,134.66 -77.01,184.02 -0.46,-0.72 -0.98,-2.78 -1.14,-2.3l-7.13 -23.78c-10.48,-43.32 -24.85,-91.12 -43.31,-131.86 -50.31,-111.08 -93.49,-184.77 -200.51,-256.3 -51.86,-34.66 -114.57,-59.88 -185.34,-75.6 -78.09,-17.35 -144.76,-18.46 -238.17,-18.49zm208.48 75.56l1.02 1.02c-0.06,-0.07 -1.36,-0.68 -1.02,-1.02z"/>
  <path class="fil1" d="M2292.59 788.65c-87.74,-54.7 -174.74,-67.58 -290.7,-67.84 -80.98,-0.18 -150.72,17.38 -218.94,31.77 -54.87,11.57 -137.84,36.57 -194.38,52.9 -300.59,86.85 -333.3,44.6 -612.81,-33.89 -174.39,-48.98 -326.71,-85.29 -528.34,-18.58 -16.75,5.54 -29.65,9.92 -44.79,17.03 -73.32,34.46 -127.04,69.15 -184.09,128.43 -200.29,208.08 -229.77,553.2 -215.46,832.04 0.74,14.36 4.19,43.08 5.87,55.96 25.75,197.78 43.34,312.39 118.28,499.9 22.66,56.7 49.96,118.81 80.47,170.24 16.5,27.82 28.96,51.88 46.11,77.53 16.83,25.18 31.97,48.36 50.53,73.1 17.97,23.93 35,46.99 55.06,68.58l60.1 63.53c26.18,26.18 55.63,52.33 87.75,76.96 -5.87,-5.57 -11.64,-11.18 -17.31,-16.85l-0.12 -0.12 -60.23 -63.66c-20.55,-21.72 -38.04,-45.77 -55.95,-69.63 -17.97,-23.92 -34.31,-48.79 -50.93,-73.64 -16.87,-25.24 -30.99,-52.01 -46.45,-78.09 -31.98,-53.89 -58.06,-113.76 -81.31,-171.93 -32.49,-81.3 -59.26,-162.46 -78.17,-248 -18.56,-83.95 -29.79,-169.67 -40.88,-254.88 -1.2,-9.21 -2.3,-18.43 -3.32,-27.66 -1.07,-9.67 -2.14,-19.52 -2.64,-29.24 -7.58,-147.64 -2.71,-300.54 27.49,-445.68 30.16,-144.95 87.38,-287.42 191.35,-395.45 26.95,-28 55.75,-53.12 87.83,-75.11 31.59,-21.67 65.21,-39.6 99.84,-55.88 15.13,-7.11 30.3,-12.33 46.14,-17.57 91.99,-30.44 182.56,-42.47 279.17,-34.67 87.39,7.05 172.16,29.46 256.28,53.09 31.59,8.87 63.06,18.16 94.48,27.62 25.66,7.72 51.29,15.58 77.03,23.04 41.04,11.89 82.65,22.92 125.16,27.93 43.21,5.1 84.95,3.44 127.96,-2.64 60.99,-8.62 122.51,-24.96 181.62,-42.03 32.64,-9.43 65.2,-19.08 97.9,-28.26 32.11,-9.02 64.72,-17.98 97.34,-24.86 35.03,-7.38 69.86,-15.4 105.16,-21.44 38.58,-6.59 77.15,-10.68 116.32,-10.59 80.61,0.18 148.03,6.47 211.55,28.56z"/>
  <path class="fil2" d="M2557.35 1088.12l60.96 73.61 -60.74 -125.08c-13.81,-36.4 -76.01,-107.41 -108.11,-138.32 -7.52,-7.24 -9.52,-7.55 -17.04,-13.87 -110.13,-92.6 -208.9,-111.96 -351.4,-112.28 -80.99,-0.18 -150.74,17.38 -218.96,31.77 -54.88,11.57 -137.86,36.57 -194.39,52.91 -300.62,86.86 -333.33,44.61 -612.86,-33.89 -174.41,-48.98 -326.74,-85.3 -528.39,-18.58 -16.75,5.54 -29.65,9.92 -44.79,17.04 -73.33,34.46 -127.05,69.15 -184.11,128.44 -78.36,81.41 -130.58,183.8 -164.26,294.99 5.66,-5.96 12.12,-10.94 19.49,-13.97l4.38 -1.81 4.68 -0.79c11.06,-1.88 22.27,-2.86 33.46,-3.75 15.96,-1.26 31.95,-2.11 47.94,-2.74 21.74,-0.87 43.51,-1.35 65.27,-1.47 8.98,-20.8 18.98,-41.18 30.08,-61.12 32.31,-58.05 75.82,-109.73 129.62,-148.58 12.07,-8.71 21.06,-13.86 33.53,-21.43 80.03,-48.55 167.48,-62.22 270.81,-62.45 233.53,-0.52 442.39,176.61 739.82,121.68 109.87,-20.29 235.5,-74.19 346.86,-96.21 132.16,-26.14 261.31,-36.13 403.45,-11.32 60.2,10.51 117.54,30.72 165.28,54.54 72.5,36.17 79.48,50.92 129.43,92.69zm-2448.69 254.37c-30.03,146.25 -33.73,301.04 -26.62,439.5 0.74,14.36 4.19,43.08 5.86,55.96 25.75,197.8 43.34,312.42 118.29,499.95 22.66,56.71 49.96,118.82 80.47,170.25 16.51,27.82 28.97,51.89 46.12,77.53 16.83,25.18 31.97,48.37 50.54,73.11 17.97,23.93 34.99,46.99 55.07,68.58l60.11 63.53c77.86,77.86 184.59,155.42 304.39,193.62 145.37,46.36 280.91,51.19 428.58,8.7 64.42,-18.54 115.97,-55.11 200.53,-40.16 27.77,4.91 67.79,21.17 92.6,31.04 90.39,35.98 232.87,44.77 329.94,31.12 35.99,-5.07 69.7,-11.59 101.58,-22.07l90.08 -33.57c14,-5.72 28.15,-13.01 41.74,-20.09 11.73,-6.11 27.34,-14.88 39.14,-22.68 32.25,-21.33 80.06,-51.93 107.67,-77.8l32.65 -29.17c13.24,-13.31 57.07,-51.73 60.92,-66.17 -97.35,65.19 -196.21,103.68 -315.95,123.68 -63.29,10.57 -129.76,16.1 -206.23,13.81l-98.56 -11.34c-100.86,-17.53 -195.34,-61.29 -260.41,-72.76 -114.82,-20.25 -184.28,27.49 -272.88,49.65 -14.97,3.75 -30.66,6.81 -45.63,9.33 -121.42,20.45 -225.99,3.31 -329.55,-42.69 -63.6,-28.24 -146.07,-87.18 -194.15,-135.77 -82.58,-83.46 -153.56,-187.6 -205.85,-292.18l-50.14 -114.73c-45.1,-112.52 -74.79,-228.66 -91.57,-351.5 -3.33,-24.41 -6.35,-48.08 -9.02,-71.2l-15.08 -0.36c-22.99,-0.55 -47.78,-12.87 -66.67,-25.39 -19.33,-12.83 -41.95,-31.69 -46.72,-55.55l-0.82 -4.13 0 -4.21c0,-32.1 13.25,-72.62 23.36,-103.19 10.69,-32.31 22.63,-64.19 35.2,-95.81 -5.11,-7.44 -9.12,-15.46 -10.98,-24.34 -4.08,-19.4 3.18,-38.9 19.46,-50.4l11.02 -7.78 14.54 0 5.72 -12.98c14.73,-33.38 29.75,-66.64 45.67,-99.47 1.74,-8.15 3.59,-16.25 5.57,-24.29 -14.25,1.37 -28.48,2.97 -42.66,4.81 -15.15,1.97 -30.29,4.19 -45.3,7.09 -7,1.35 -15.34,2.75 -21.99,5.28l-15.51 5.91 -15.42 -6.16c-8.3,-3.32 -14.63,-8.37 -19.11,-14.51z"/>
  <path class="fil3" d="M1465.98 1441.13c11.17,-24.46 22.52,-49.07 34.62,-73.05 6.24,-12.37 12.6,-24.74 19.4,-36.81 5.39,-9.59 12,-21.11 19.45,-29.4 7.53,-9.11 19.6,-15.72 31.4,-15.92 16.91,-0.39 35.18,6.98 49.85,15.06 13.7,7.53 31.65,18.73 35.28,35.06l4.66 20.99 -15.69 9.15c-2.7,3.56 -5.73,9.16 -7.66,12.6 -4.2,7.5 -8.14,15.16 -12.08,22.8 -2.8,5.42 -5.52,10.91 -8.19,16.44 6.89,-4.46 15.02,-6.39 23.73,-6.39 17.24,0 36.61,8.76 51.54,17.19 6.12,3.45 12.28,7.28 17.92,11.48 2.66,1.99 5.29,4.13 7.59,6.54 13.08,13.7 11.41,35.04 -2.94,45.49 -6.14,7.58 -15.4,26.48 -19.36,34.74 -10.21,21.31 -20.21,42.79 -29.78,64.45 10.02,-13.14 19.99,-26.33 29.94,-39.51 22.69,-30.02 45.26,-60.21 68.34,-89.93 7.91,-10.19 15.91,-20.44 24.27,-30.27 7.87,-9.27 16.24,-19.24 28.98,-21.44 17.93,-3.11 38.29,5.48 53.82,14.03 12.08,6.65 27.59,15.93 34.28,29.09 8.79,-9.1 18.08,-17.62 27.84,-25.22 24.63,-19.18 54.88,-34.19 86.9,-31.77 43.21,3.26 93.27,29.51 109.65,71.74 23.53,-30.14 61.37,-67.88 100.65,-67.88 32.64,0 66.16,9.34 90.87,29.61 1.32,-1.66 2.67,-3.25 4.03,-4.75l0.47 -0.52 0.5 -0.5c7.82,-7.82 18.03,-13.52 29.32,-13.7 17.03,-0.38 35.8,7.13 50.61,15.25 10.78,5.91 23.74,14.02 31.06,24.97 25.96,-34.12 68.09,-56.62 111.47,-57.69 49.91,-1.23 107.1,32.6 117.52,83.89l0.73 3.61 -0.18 3.68c-1.16,23.64 -21.75,45.93 -38.36,61.31 -11.09,10.28 -33.27,30.2 -48.68,31.91 -1.88,0.21 -3.73,0.29 -5.54,0.25 0.17,0.35 0.33,0.7 0.5,1.04 8.63,17.68 17.7,35.16 26.24,52.88 5.81,12.05 13.83,28.44 15.87,41.88 0.92,4.79 1.52,9.59 1.52,14.48 0,74.03 -94.51,107.88 -156.08,109.48 -33.86,0.88 -71.13,-5.33 -101.65,-20.19 -11.46,-5.58 -22.15,-12.56 -31.22,-20.94 -0.12,1.24 -0.2,2.45 -0.24,3.62 0,0.75 0.02,1.62 0.11,2.39l13.45 33.62c-2.64,3.95 -5.27,7.91 -7.91,11.86l-38.57 -6.86c-18.82,-3.34 -39.67,-14.1 -55.44,-24.96 -10.37,-7.14 -21.9,-16.5 -29.43,-27.78 -6.65,8.72 -13.58,17.38 -20.91,25.35 -9.9,10.77 -21.66,21.65 -37.3,21.65 -27.62,0 -56.7,-11.93 -78.95,-27.97 -13.48,-9.72 -26.76,-22.69 -35.03,-37.86 -36.81,33.33 -81.97,64.71 -119.4,64.71 -30.72,0 -61.17,-13.5 -84.31,-33.28 -12.93,-11.05 -24.73,-25.16 -32.19,-41 -0.31,1.05 -0.61,2.1 -0.92,3.15 -2.33,8.05 -8.79,30.74 -8.41,39.86l13.7 34.22c1.74,6.83 -0.72,10.47 -7.31,10.96l-39.59 -7.04c-18.82,-3.34 -39.68,-14.1 -55.44,-24.96 -13.64,-9.39 -29.3,-22.64 -35.2,-39.03 -6.42,8.87 -12.94,17.67 -19.61,26.31 -9.63,12.48 -21.27,29.4 -38.47,30.72l-0.72 0.05 -0.72 0.02c-27.77,0.77 -57.33,-10.69 -79.85,-26.45 -15.35,-10.74 -30.36,-25.66 -38.08,-43.31 -4.75,16.14 -8.35,30.89 -7.64,36.92l17.78 41.02c-0.07,4.07 0.97,3.37 -3.94,6.78l-46.32 -8.06c-31.45,-5.47 -88.44,-37.84 -92.4,-73.23 -1.74,7.23 -3.13,14.63 -3.33,20.8 0,0.75 0.02,1.62 0.11,2.39 5.55,13.87 11.09,27.74 16.64,41.62 -0.3,3.66 -2.22,5.33 -5.98,4.77l-43.69 -7.77c-18.82,-3.34 -39.67,-14.1 -55.45,-24.96 -10.37,-7.14 -21.9,-16.5 -29.43,-27.78 -6.65,8.72 -13.58,17.38 -20.92,25.35 -9.9,10.77 -21.66,21.65 -37.31,21.65 -27.61,0 -56.7,-11.93 -78.94,-27.97 -15.26,-11 -30.26,-26.17 -38.03,-43.98 -28.04,38.61 -63.7,68 -107.38,68 -33.91,0 -64.54,-12.3 -91.07,-31.37 -16.45,47.66 -30.94,95.87 -42.98,144.86 -2.47,14.6 -5.54,28.54 -6.86,43.42l-1.24 14.08 -11.76 7.84c-6.61,4.41 -14.01,6.64 -21.97,6.64 -19.46,0 -39.92,-15.22 -54.03,-27.62 -13.41,-11.78 -32.35,-30.12 -32.35,-49.18 0,-10.73 2.57,-22.8 4.99,-33.24 3.4,-14.69 7.56,-29.31 11.87,-43.76 2.47,-8.3 5.02,-16.59 7.64,-24.86 -15.42,-4.83 -31.23,-13.42 -43.81,-22.07 -10.37,-7.14 -21.9,-16.5 -29.43,-27.78 -6.65,8.72 -13.58,17.38 -20.92,25.35 -9.91,10.77 -21.66,21.65 -37.31,21.65 -27.61,0 -56.7,-11.93 -78.95,-27.97 -22.03,-15.88 -43.51,-40.45 -43.51,-69.12 0,-52.26 33.06,-126.3 66.44,-181.74 -20.49,11.28 -41.6,21 -62.07,29.24 -42.4,17.07 -89.1,30 -134.6,38.36 -16.96,42.94 -33.18,86.4 -47.9,130.1 -6.7,19.89 -13.22,40.06 -18.64,60.33 -1.88,7.03 -5.26,19.22 -6.2,27.89l26.97 26.96c3.08,11.86 -2.85,17.51 -16.84,17.59l-38.27 -0.91c-20.2,-0.48 -43.09,-12.16 -59.76,-23.22 -15.97,-10.6 -37.18,-27.47 -41.13,-47.23l-0.57 -2.86 0 -2.92c0,-29.42 13.43,-71.09 22.7,-99.09 11.34,-34.29 24.19,-68.3 37.65,-101.88 -1.33,-1.64 -2.63,-3.33 -3.88,-5.14 -4.2,-6.06 -7.64,-12.64 -9.16,-19.91 -3,-14.28 2.16,-28.54 14.2,-37.04l7.64 -5.39 18.9 0 9.16 -20.77c15.16,-34.36 30.64,-68.63 47.09,-102.39 6.88,-14.13 13.96,-28.25 21.33,-42.22 -24.59,1.81 -49.16,4.27 -73.49,7.43 -15.39,2 -30.84,4.27 -46.09,7.22 -7.41,1.43 -17.11,3.21 -24.16,5.9l-10.74 4.09 -10.67 -4.27c-18.95,-7.58 -22.43,-26.87 -16.86,-44.17 2.2,-6.82 5.38,-13.64 8.73,-19.98 7.25,-13.72 18.38,-31.67 33.21,-37.77l3.03 -1.25 3.24 -0.55c10.57,-1.8 21.61,-2.76 32.3,-3.6 15.78,-1.25 31.62,-2.08 47.43,-2.71 37.23,-1.48 74.63,-1.83 111.92,-1.16 8.62,-8.82 19.27,-16.05 31.45,-16.05 17.36,0 42.04,10.51 59.35,19.74 65.25,5.2 182.2,20.17 208.74,87.39 7.34,18.59 6.15,38.67 -0.18,57.35 -0.93,2.74 -1.96,5.45 -3.09,8.12 4.15,-0.81 8.32,-1.24 12.52,-1.24 32.64,0 66.16,9.34 90.87,29.61 1.33,-1.66 2.67,-3.25 4.03,-4.75l0.47 -0.52 0.49 -0.5c7.82,-7.82 18.03,-13.52 29.32,-13.69 17.03,-0.38 35.8,7.12 50.61,15.25 6.87,3.76 14.62,8.42 21.23,14.14 3.78,-5.74 7.63,-10.89 11.44,-14.96l0.34 -0.37 0.36 -0.36c8.07,-8.07 18.92,-13.54 30.47,-13.7 16.85,-0.37 35.5,7.29 50.18,15.25 6.56,3.56 14.01,7.84 20.47,13.1 20.94,-18.96 47.8,-38.51 71.33,-38.51 23.05,0 46.13,11.09 64.07,24.96 15.9,12.3 33.04,30.97 36.99,51.29 0.28,1.44 0.52,2.91 0.72,4.42 1.83,-2.57 3.64,-5.05 5.43,-7.42 23.07,-30.81 63.09,-73.24 104.75,-73.24 32.63,0 66.16,9.34 90.86,29.61 1.33,-1.66 2.67,-3.25 4.03,-4.75l0.48 -0.52 0.49 -0.5c7.82,-7.82 18.03,-13.52 29.32,-13.69 17.03,-0.38 35.8,7.12 50.61,15.25 11.35,6.22 25.13,14.9 32.19,26.74zm-1085.39 23.41c5.42,-2.06 10.81,-4.25 16.14,-6.58 34.88,-15.2 71.33,-38.69 94.46,-69.48 6.48,-8.62 12.9,-19.23 15.75,-29.72 0.63,-2.32 1.95,-8.78 0.95,-11.28 -9.29,-13.82 -33.66,-19.87 -53.68,-22.78 -12.91,22.38 -25.62,44.84 -37.75,67.67 -12.62,23.75 -24.59,47.79 -35.88,72.17zm239.38 157.25c3.46,-4.69 6.89,-9.4 10.29,-14.1 27.22,-37.72 53.9,-77.27 78.02,-117.3 -0.24,-0.43 -0.49,-0.84 -0.73,-1.21 -7.91,4 -20.99,18.94 -25.29,24.24 -15.75,19.41 -29.48,42.13 -41.18,64.18 -7.6,14.31 -14.73,29.12 -21.11,44.2zm384.62 -102.76c-15.76,17.65 -30.46,36.84 -44.25,55.85 -16.49,22.74 -32.25,46.26 -46.87,70.25 -5.28,8.66 -10.44,17.43 -15.27,26.34 6.52,3.03 13.65,5.05 19.05,5 3.52,-0.27 11.28,-7.34 13.6,-9.69 9.89,-9.97 18.5,-23.04 25.61,-35.1 16.18,-27.43 30.01,-59.1 40.3,-89.18 2.66,-7.78 5.29,-15.61 7.83,-23.48zm208.95 102.76c3.47,-4.69 6.89,-9.4 10.29,-14.1 27.23,-37.72 53.89,-77.27 78.02,-117.3 -0.25,-0.43 -0.5,-0.84 -0.73,-1.21 -7.91,4 -20.99,18.94 -25.29,24.24 -15.75,19.41 -29.47,42.13 -41.18,64.18 -7.6,14.31 -14.73,29.12 -21.11,44.2zm1197.71 -93.19c-7.7,16.19 -14.96,32.42 -21.86,48.76 8.82,-6.47 18.01,-12.68 27.2,-18.21 -2.96,-10.14 -4.99,-20.58 -5.33,-30.54zm-349.35 54.9c-4.16,1.94 -8.63,3.17 -13.59,3.17 -22.22,0 -38.06,-17.97 -34.75,-40.02 1.71,-11.43 3.94,-22.45 5.63,-33.58 -6.46,7.04 -12.28,14.11 -15.19,17.85 -17.95,23.01 -34.56,49.81 -46.73,76.34 -10.58,23.06 -25.69,57.2 -28.02,84.55 15.48,-4.95 35.58,-16.84 45.13,-22.97 28.29,-18.18 55.44,-41.04 79.06,-65.21 2.65,-6.68 5.48,-13.41 8.46,-20.13zm480.63 -83.3c-0.04,-6.09 -0.47,-11.82 -1.54,-16.63l-0.07 -0.31 -0.05 -0.31c-0.22,-1.08 -0.74,-3.28 -1.39,-4.91 -0.07,1.06 -0.07,2.11 -0.06,2.77 0.17,5.73 1.31,12.32 3.11,19.38zm-356.6 132.98c3.46,-4.69 6.89,-9.4 10.29,-14.1 27.23,-37.72 53.9,-77.27 78.02,-117.3 -0.25,-0.43 -0.49,-0.84 -0.73,-1.21 -7.91,4 -20.99,18.94 -25.29,24.24 -15.75,19.41 -29.48,42.13 -41.18,64.18 -7.6,14.31 -14.73,29.12 -21.11,44.2zm264.12 3.36c-15.02,15.64 -28.4,34.33 -29.01,51.92 -0.61,17.17 14.14,22.51 29.2,22.51 5.23,0 19.71,-2.49 25.53,-6.27 -1.66,-13.53 -8.68,-30.42 -13.78,-42.18 -3.8,-8.74 -7.83,-17.38 -11.93,-25.98z"/>
  <path class="fil4" d="M1124.33 1537.83c12.47,-23.1 26.57,-45.56 41.82,-65.94 19.39,-25.9 56.54,-66.78 91.84,-66.78 34.64,0 71.34,11.65 93.16,38.51 4.26,-6.97 8.9,-13.67 13.67,-18.92l0.22 -0.24 0.22 -0.22c4.8,-4.79 11.24,-8.89 18.22,-8.97 13.91,-0.34 30.43,6.62 42.56,13.27 9.31,5.1 26.4,15.22 28.3,26.61l1.51 9.07 -7.51 4.38c-6.13,5.51 -19.42,31.98 -23.31,40.14 -20.87,43.75 -38.62,87.74 -54.69,133.42 -7.4,21 -14.77,42.2 -20.95,63.59 -3.65,12.62 -8.37,29.45 -8.73,42.63 0,1.9 0.11,5.62 0.74,7.3l8.9 22.25 -23.6 -4.2c-16.43,-2.92 -35.34,-12.88 -49.12,-22.37 -12.02,-8.28 -30.64,-23.16 -30.64,-39.23 0,-5.14 1.28,-11.38 2.68,-17.02 -5.41,7.61 -10.88,15.17 -16.43,22.64 -8.47,11.39 -17.37,23.1 -26.97,33.55 -6.3,6.84 -15.45,16.43 -25.44,16.43 -24.15,0 -50.07,-10.9 -69.51,-24.92 -17.47,-12.59 -36.82,-33.08 -36.82,-56.04 0,-8.73 1.06,-18.05 2.86,-27.6 -28.28,53.65 -68.82,104.62 -120.88,104.62 -37.93,0 -71.3,-17.47 -98.72,-42.11l-2.59 7.31c-18.75,52.97 -35.14,106.57 -48.54,161.15 -2.56,15.27 -5.74,29.72 -7.12,45.27l-0.56 6.37 -5.32 3.55c-3.96,2.64 -8.24,3.93 -13.03,3.93 -14.51,0 -32.83,-14.33 -43.39,-23.61 -8.87,-7.79 -26.87,-24.41 -26.87,-37.07 0,-9.37 2.46,-20.48 4.57,-29.6 3.33,-14.36 7.4,-28.66 11.62,-42.78 4.12,-13.82 8.45,-27.6 12.94,-41.35l-6.28 -1.12c-16.43,-2.92 -35.34,-12.88 -49.12,-22.37 -12.02,-8.28 -30.64,-23.16 -30.64,-39.23 0,-5.14 1.29,-11.38 2.68,-17.02 -5.41,7.61 -10.88,15.17 -16.43,22.64 -8.46,11.39 -17.37,23.1 -26.98,33.55 -6.29,6.84 -15.45,16.43 -25.43,16.43 -24.15,0 -50.07,-10.9 -69.52,-24.92 -17.46,-12.59 -36.82,-33.08 -36.82,-56.04 0,-32.88 15.06,-74.25 28.08,-104.12 16.72,-38.31 38.61,-77.31 63.64,-110.74 19.39,-25.9 56.54,-66.78 91.84,-66.78 34.64,0 71.34,11.65 93.16,38.51 4.26,-6.97 8.9,-13.67 13.67,-18.92l0.22 -0.24 0.22 -0.22c4.8,-4.79 11.24,-8.89 18.22,-8.97 13.91,-0.34 30.43,6.62 42.56,13.27 9.31,5.1 26.4,15.22 28.3,26.61l0.91 5.43c1.82,-3.45 3.69,-6.87 5.61,-10.25 4.73,-8.35 10.84,-18.73 17.38,-25.75l0.16 -0.17 0.17 -0.16c5.08,-5.08 12.04,-8.9 19.35,-8.97 13.7,-0.33 30.24,6.81 42.22,13.31 5.68,3.08 11.4,6.56 16.57,10.45 4.16,3.12 8.53,6.82 10.55,11.68 18.8,-18.5 49.75,-45.58 72.36,-45.58 19.33,0 39.21,9.99 54.21,21.59 12.49,9.66 27.9,25.56 31.03,41.61 3.64,18.76 -0.78,45.42 -6.94,69.52zm-265.63 -71.55l-3.94 2.3c-6.12,5.51 -19.41,31.98 -23.31,40.14 -20.86,43.75 -38.61,87.74 -54.69,133.42 -7.4,21 -14.77,42.2 -20.95,63.59 -3.64,12.62 -8.37,29.45 -8.73,42.63 0,0.79 0.02,1.9 0.09,3.04 5.32,-15.76 10.78,-31.46 16.3,-47.1 25.69,-72.81 53,-144.58 84.37,-215.18 3.41,-7.68 7.02,-15.31 10.85,-22.83zm-277.41 227.97c6.04,-5.97 12.67,-13.59 15.26,-16.62 15.32,-17.86 29.69,-37 43.52,-56.02 16.52,-22.72 32.49,-45.89 47.97,-69.33 13.21,-20.01 26.16,-40.3 38.44,-60.91 -3.28,-8.76 -8.55,-19.04 -18.08,-19.04 -10.5,0 -27.12,17.48 -33.4,24.67 -17.26,19.72 -32.27,43.89 -44.83,66.84 -13.87,25.37 -26.29,52.35 -35.88,79.62 -5.03,14.31 -11.19,33.92 -13,50.8zm452.68 -223.75c-9.79,5.78 -22.27,17.69 -26.73,22.15 -20,20.03 -38.4,43.45 -55.18,66.22 -17.84,24.19 -34.83,49.32 -50.57,74.93 -6.22,10.13 -12.3,20.41 -17.96,30.88 -2.17,4.03 -4.47,8.32 -6.52,12.65 10.94,8.76 27.79,15.37 40.39,15.26 19.72,-0.17 43.38,-36.67 52.14,-51.36 17.1,-28.68 31.69,-61.98 42.47,-93.52 5.77,-16.89 11.45,-34 16.15,-51.22 2,-7.28 4.74,-17.38 5.8,-26zm140.89 223.75c6.04,-5.97 12.67,-13.59 15.26,-16.62 15.31,-17.86 29.69,-37 43.52,-56.02 16.52,-22.72 32.49,-45.89 47.97,-69.33 13.21,-20.01 26.16,-40.3 38.44,-60.91 -3.28,-8.76 -8.55,-19.04 -18.08,-19.04 -10.5,0 -27.12,17.48 -33.39,24.67 -17.26,19.72 -32.28,43.89 -44.83,66.84 -13.88,25.37 -26.29,52.35 -35.88,79.62 -5.04,14.31 -11.19,33.92 -13,50.8zm-848.91 -387.7c-34.66,1.83 -69.41,4.93 -103.73,9.38 -15.73,2.04 -31.51,4.37 -47.07,7.38 -8.43,1.63 -18.82,3.6 -26.85,6.66l-4.86 1.85 -4.83 -1.93c-10.56,-4.23 -10.39,-15.25 -7.49,-24.25 1.91,-5.92 4.74,-11.9 7.64,-17.39 5.07,-9.59 14.75,-26.14 25.1,-30.4l1.37 -0.57 1.47 -0.25c10.09,-1.72 20.67,-2.62 30.87,-3.43 15.56,-1.23 31.19,-2.05 46.8,-2.67 39.36,-1.57 78.92,-1.86 118.32,-1.01 6.39,-7.65 15.45,-16.2 24.41,-16.2 15.12,0 39.91,11.3 54.68,19.43 56.71,4.36 174.74,17.53 198.42,77.51 5.91,14.98 4.63,31.25 -0.46,46.25 -6.14,18.14 -17.8,34.85 -30.54,48.98 -37.7,41.78 -94.52,72.63 -146.1,93.39 -44.12,17.76 -93.09,30.94 -140.25,39.02 -18.26,45.91 -35.74,92.45 -51.5,139.25 -6.81,20.21 -13.42,40.7 -18.94,61.31 -2.66,9.96 -6.99,25.83 -6.99,36.11 0,0.65 0.13,1.73 0.3,2.68l21.58 21.58 -33.27 -0.79c-16.74,-0.4 -37.38,-11.35 -51.23,-20.54 -11.56,-7.67 -31.36,-22.59 -34.23,-36.96l-0.26 -1.29 0 -1.32c0,-13.25 3.19,-28.16 6.31,-41.01 4.34,-17.85 9.81,-35.57 15.58,-53.01 12.25,-37.03 26.28,-73.75 40.93,-109.94 -3.15,-3.64 -6.36,-7.21 -9.22,-11.33 -2.93,-4.23 -5.57,-8.97 -6.64,-14.05 -1.68,-8 0.94,-15.76 7.72,-20.55l3.46 -2.44 24.29 0 13.41 -30.39c15.08,-34.17 30.47,-68.26 46.84,-101.84 11.03,-22.62 22.54,-45.25 35,-67.23zm25.05 184.55c17.78,-4.87 35.19,-10.97 52.17,-18.37 38.27,-16.68 77.97,-42.7 102.7,-76.99 7.48,-10.39 14.54,-22.97 17.33,-35.57 1.42,-6.45 2.09,-15.01 -1.45,-20.96 -14.31,-22.3 -49.81,-29.02 -76.15,-31.84 -14.83,25.61 -29.48,51.28 -43.39,77.43 -18.33,34.5 -35.29,69.6 -50.83,105.44l-0.39 0.86zm1999.17 141.74c6.31,-6.75 12.73,-12.83 18.47,-17.98 13.17,-11.78 27.35,-22.7 41.99,-32.58 8.05,-5.43 16.64,-10.89 25.42,-15.66 -4.91,-13.19 -8.73,-27.85 -8.73,-40.97 0,-63.91 60.16,-114.95 121.79,-116.47 42.02,-1.04 92.49,27.51 101.33,70.98l0.33 1.63 -0.08 1.67c-0.89,18.27 -20.33,38.33 -33.21,50.27 -7.32,6.79 -29.45,26.59 -39.5,27.71 -12.11,1.35 -22.12,-5.55 -22.12,-18.31l0 -0.55 0.05 -0.55c1.53,-18.37 4.83,-43.99 0.83,-61.96l-0.03 -0.14 -0.03 -0.14c-2.14,-10.71 -6.17,-18.6 -17.94,-18.6 -12.89,0 -15.77,8.44 -15.43,20.11 0.44,15.15 6.29,33.05 11.56,47.16 7.29,19.53 16.22,38.65 25.36,57.38 8.62,17.66 17.68,35.11 26.2,52.81 4.92,10.21 12.9,26.27 14.49,37.6 0.76,3.88 1.3,7.79 1.3,11.76 0,63.74 -88.41,92.01 -140.37,93.36 -31.26,0.81 -66.01,-4.85 -94.17,-18.57 -20.19,-9.83 -38.23,-24.7 -46.1,-44.98 -3.62,12.54 -8.17,28.99 -8.53,41.94 0,1.9 0.11,5.62 0.74,7.3l8.9 22.25 -23.6 -4.2c-16.43,-2.92 -35.34,-12.88 -49.12,-22.37 -12.02,-8.28 -30.64,-23.16 -30.64,-39.23 0,-5.14 1.28,-11.38 2.68,-17.02 -5.41,7.61 -10.88,15.17 -16.43,22.64 -8.45,11.39 -17.37,23.1 -26.97,33.55 -6.3,6.84 -15.45,16.43 -25.44,16.43 -24.15,0 -50.07,-10.9 -69.52,-24.92 -17.05,-12.29 -35.9,-32.11 -36.78,-54.41 -36.62,36.3 -88.43,78.21 -127.07,78.21 -26.84,0 -53.64,-12.15 -73.83,-29.41 -18.07,-15.44 -34.75,-38.69 -34.75,-63.4 0,-54.82 35.99,-127.15 66.67,-171.96 18,-26.29 40.01,-52.57 65.23,-72.21 21.35,-16.63 47.92,-30.52 75.77,-28.42 41.15,3.11 93.08,30.99 99.56,75.63l0.18 1.27 -0.06 1.28c-0.86,18.05 -18.71,38.57 -30.99,51.11 -6.36,6.49 -13.15,12.79 -20.21,18.53 -5.08,4.12 -12.21,10.13 -19.05,10.13 -12.37,0 -20.66,-9.2 -18.81,-21.5 3.33,-22.17 8.31,-42.34 8.31,-65.1 0,-1.26 -0.12,-4.01 -0.55,-6.03 -4.16,1.42 -10.55,6.07 -12.73,7.8 -10.2,8.08 -19.69,18.61 -27.93,28.65 -20.79,25.32 -40.33,56.38 -53.99,86.19 -12.74,27.77 -29.79,66.91 -29.79,98.17 0,2.48 0.69,11.48 4.71,11.48 19.2,0 49.85,-17.68 65.56,-27.78 30.23,-19.43 59.17,-43.95 84.16,-69.86 17.35,-44.47 42.81,-91.21 71.3,-129.26 19.39,-25.9 56.54,-66.78 91.84,-66.78 34.63,0 71.34,11.65 93.16,38.51 4.26,-6.97 8.9,-13.67 13.67,-18.92l0.22 -0.24 0.22 -0.22c4.8,-4.79 11.24,-8.89 18.22,-8.97 13.91,-0.34 30.43,6.62 42.57,13.27 9.31,5.1 26.39,15.21 28.29,26.61l1.52 9.07 -7.51 4.38c-6.13,5.51 -19.42,31.98 -23.31,40.14 -17.7,37.11 -33.16,74.39 -47.25,112.73zm-202.92 72.81c6.04,-5.97 12.67,-13.59 15.26,-16.62 15.32,-17.86 29.69,-37 43.52,-56.02 16.52,-22.72 32.49,-45.89 47.97,-69.33 13.21,-20.01 26.16,-40.3 38.44,-60.91 -3.28,-8.76 -8.55,-19.04 -18.08,-19.04 -10.5,0 -27.12,17.48 -33.4,24.66 -17.26,19.73 -32.27,43.89 -44.83,66.84 -13.87,25.37 -26.29,52.35 -35.88,79.62 -5.04,14.31 -11.19,33.92 -13,50.8zm307.77 -96.11c-23.23,20.36 -49.08,49.04 -50.11,78.36 -0.94,26.81 20.83,39.2 45.32,39.2 10.34,0 41.97,-5.41 41.92,-20.04 -0.93,-16.31 -8.93,-36.11 -15.39,-50.96 -6.82,-15.7 -14.4,-31.08 -21.74,-46.56zm-903.34 -297.16c4.5,-5.59 12.34,-10.21 19.5,-10.31 13.76,-0.34 29.77,6.47 41.75,13.06 8.53,4.69 25.03,14.19 27.3,24.43l2.11 9.5 -7.93 4.63c-2.99,2.79 -8.08,11.78 -10.05,15.23 -4.73,8.3 -9.1,16.81 -13.47,25.3 -7.91,15.34 -15.24,31.21 -22.5,46.86 -11.14,24.05 -22.01,48.25 -32.64,72.53 -11.63,26.57 -23.01,53.27 -33.89,80.15 -9.29,22.95 -18.44,46.24 -26.3,69.72 -7.74,23.12 -16.25,46.89 -22.31,70.48 -1.75,6.81 -6.38,25.98 -3.46,32.73l9.82 22.65 -24.33 -4.23c-16.49,-2.87 -35.12,-12.56 -48.91,-22.11 -11.85,-8.2 -29.74,-22.76 -30.32,-38.44l-0.01 -0.25 0 -0.25c0,-6.9 2.86,-16.85 4.72,-23.51 3.77,-13.46 8.19,-26.83 12.74,-40.04 14.68,-42.67 31.46,-84.95 48.97,-126.52 11.56,-27.43 23.81,-54.68 36.16,-81.75 11.74,-25.72 23.64,-51.68 36.38,-76.92 6.14,-12.15 12.38,-24.3 19.06,-36.17 4.78,-8.49 11.01,-19.54 17.63,-26.79zm334.62 165.92c-3.07,2.7 -8.29,11.53 -10.32,14.98 -4.67,7.97 -9.03,16.4 -12.8,24.84 -18.53,41.45 -36.24,83.09 -51.48,125.87 -9.36,26.27 -18.87,53 -26.35,79.86 -2.68,9.64 -5.28,19.75 -6.7,29.66 -0.4,2.79 -1.36,10.86 -0.39,13.53l8.91 22.26 -23.61 -4.2c-16.42,-2.92 -35.33,-12.88 -49.12,-22.37 -12.01,-8.28 -30.64,-23.16 -30.64,-39.23 0,-8.54 4.38,-22.23 6.9,-30.47 2.55,-8.33 5.28,-16.64 8.1,-24.91 -8.4,12.2 -16.86,24.34 -25.38,36.42 -11.61,16.45 -23.38,32.95 -35.69,48.89 -3.89,5.03 -7.88,10.13 -12.12,14.87 -4,4.46 -8.45,9.13 -14.83,9.63l-0.33 0.02 -0.33 0.01c-24.24,0.67 -50.53,-9.8 -70.16,-23.54 -17.74,-12.42 -37.4,-32.94 -36.53,-56.22l0 -0.22 0.02 -0.22c0.4,-5.77 2.33,-12.53 3.93,-18.09 2.58,-8.93 5.57,-17.79 8.65,-26.56 8.58,-24.4 18.22,-48.59 28.33,-72.38 11.45,-26.92 23.69,-53.68 37.12,-79.68 11.29,-21.86 24.15,-45.15 39.12,-64.7l0.08 -0.11 0.09 -0.11c5.07,-6.35 12.15,-8.38 19.98,-8.38 14.01,0 31.41,8.22 43.61,15.11 5.52,3.12 11.11,6.57 16.2,10.37 1.93,1.44 3.91,3.01 5.58,4.76 6.52,6.83 5.87,17.53 -2.02,22.11 -6.18,5.8 -19.29,31.94 -23.17,40.02 -16.19,33.8 -31.86,68.05 -46.15,102.69 -7.3,17.7 -14.36,35.68 -20.36,53.87 -0.99,3 -2.04,6.21 -3.06,9.54 7.33,-8.54 14.43,-17.33 21.44,-26.1 24.84,-31.06 48.87,-62.88 72.85,-94.6 23.25,-30.76 46.35,-61.67 69.98,-92.14 8.01,-10.33 16.09,-20.72 24.54,-30.7 4.8,-5.67 12.15,-15.09 19.8,-16.42 13.62,-2.36 31.45,5.75 43.29,12.27 5.9,3.25 11.82,6.92 17.19,10.98 5.29,4 11.18,8.97 11.97,16.03l0.95 8.61 -7.1 4.14z"/>
  <path class="fil5" d="M169.04 1270.18c-9.47,4.06 -31.11,45.32 -25.7,47.35 23.67,-8.8 112.97,-22.32 206.31,-25.71 -30.44,50.73 -62.91,119.73 -93.35,189.4l-16.91 37.88 -28.41 0c-10.15,6.76 10.14,25.7 15.56,33.15 -29.76,73.06 -64.94,168.43 -64.94,206.31 2.7,14.21 49.38,46 73.06,46.68 -1.36,-1.36 -2.71,-6.77 -2.71,-10.15 0,-32.47 43.97,-155.58 81.17,-248.93 46,-7.44 99.44,-20.97 144.76,-39.24 133.93,-53.44 186.7,-129.2 169.78,-171.14 -16.91,-43.97 -98.76,-62.91 -190.08,-69.67 -15.55,-8.8 -39.23,-18.94 -50.73,-18.94 -2.7,0 -10.15,5.41 -17.59,16.24 -90.65,-2.03 -173.85,2.03 -200.23,6.76zm170.47 214.43c34.5,-80.5 68.32,-138.67 98.76,-191.43 45.32,4.06 79.14,14.21 94.7,39.23 19.62,31.12 -20.97,107.55 -124.46,152.2 -28.41,12.85 -55.47,20.3 -80.5,25.71l11.5 -25.71z"/>
  <path class="fil5" d="M664.19 1418.32c-23,0 -54.12,25.71 -81.18,61.56 -46.67,62.23 -88.61,156.94 -88.61,206.99 0,30.44 52.09,67.64 92.67,67.64 12.85,0 61.56,-70.35 112.29,-147.46 -9.48,23.68 -32.47,89.97 -32.47,104.85 0,15.56 43.29,43.97 68.32,48.71 -0.67,-2.71 -1.35,-7.44 -1.35,-12.18 0.67,-23 14.21,-64.26 30.44,-110.94 11.49,-33.15 28.41,-77.79 55.47,-134.61 7.44,-16.24 20.96,-41.94 27.73,-45.32 -0.67,-6.76 -37.21,-29.76 -57.5,-29.09 -3.38,0 -7.44,3.38 -8.79,5.41 -5.41,6.09 -14.2,18.94 -23,36.53 -15.56,-37.88 -57.5,-52.09 -94.02,-52.09zm-96.73 286.81c-1.36,-65.62 90.64,-246.22 140.7,-246.22 18.94,0 27.06,16.91 33.14,33.82 -49.38,83.2 -147.46,221.87 -167.08,221.87 -4.06,0 -6.76,-4.06 -6.76,-9.47zm371.36 -215.11c8.12,-14.88 17.59,-31.12 22.32,-33.82 0,-5.41 -37.21,-28.41 -56.82,-27.73 -4.05,0 -7.44,2.7 -10.14,5.41 -7.44,8.12 -21.65,33.15 -34.5,60.88 -37.2,83.88 -64.94,159.64 -83.88,213.75 -28.41,80.5 -52.08,156.94 -52.08,179.93 0,9.47 40.59,47.35 56.82,47.35 2.03,0 4.06,-0.67 5.41,-1.35 2.03,-19.62 5.41,-33.15 7.44,-46.67 14.2,-57.5 30.44,-111.61 49.38,-163.02l9.47 -27.06c27.73,30.44 63.58,52.76 104.17,52.76 74.41,0 125.82,-126.49 144.08,-180.61 13.53,-39.24 21.65,-78.47 17.59,-98.76 -4.06,-20.29 -41.94,-52.76 -72.38,-52.76 -30.44,0 -110.26,84.56 -136.64,137.99 14.88,-34.5 18.27,-45.32 29.76,-66.29zm103.5 -35.85c5.41,0 5.41,6.76 5.41,10.14 0,16.24 -10.15,50.06 -23,87.94 -17.59,50.73 -63.59,152.88 -107.55,153.55 -20.97,0 -45.32,-12.85 -56.15,-25.03 16.24,-43.97 137.32,-226.61 181.29,-226.61z"/>
  <path class="fil6" d="M1257.75 1418.32c-23,0 -54.12,25.71 -81.17,61.56 -46.68,62.23 -88.61,156.94 -88.61,206.99 0,30.44 52.08,67.64 92.67,67.64 12.85,0 61.56,-70.35 112.29,-147.46 -9.47,23.68 -32.47,89.97 -32.47,104.85 0,15.56 43.29,43.97 68.32,48.71 -0.68,-2.71 -1.36,-7.44 -1.36,-12.18 0.67,-23 14.21,-64.26 30.44,-110.94 11.5,-33.15 28.41,-77.79 55.47,-134.61 7.44,-16.24 20.97,-41.94 27.74,-45.32 -0.68,-6.76 -37.2,-29.76 -57.5,-29.09 -3.38,0 -7.44,3.38 -8.79,5.41 -5.41,6.09 -14.21,18.94 -23,36.53 -15.56,-37.88 -57.49,-52.09 -94.02,-52.09zm-96.73 286.81c-1.36,-65.62 90.64,-246.22 140.7,-246.22 18.94,0 27.06,16.91 33.15,33.82 -49.38,83.2 -147.46,221.87 -167.08,221.87 -4.06,0 -6.77,-4.06 -6.77,-9.47z"/>
  <path class="fil2 str0" d="M1457.33 1772c-6.76,-16.91 6.77,-56.15 25.71,-112.97 26.38,-79.14 96.05,-232.7 116.35,-271.25 8.12,-16.24 20.97,-41.27 27.74,-45.32 -0.68,-5.41 -35.18,-27.74 -55.47,-27.06 -3.39,0 -8.12,3.38 -9.47,5.41 -8.79,9.47 -23.68,36.53 -35.18,60.2 -18.27,35.85 -54.79,115.67 -72.38,158.29 -42.62,100.79 -65.61,172.49 -65.61,184.67 0.67,15.56 42.61,43.29 68.32,48.03z"/>
  <path class="fil7" d="M1516.51 1698.94c-0.67,30.44 52.76,66.97 93.35,65.61 7.44,-0.67 85.91,-113.64 141.38,-198.87 -14.88,37.21 -54.12,140.7 -54.12,157.61 0,15.56 43.29,43.97 69,48.71 -6.77,-16.91 12.85,-75.76 33.15,-132.58 11.5,-33.15 25.71,-69 52.08,-126.49 6.77,-16.91 20.97,-41.94 27.74,-46 -0.68,-4.74 -39.91,-30.44 -56.82,-27.74 -12.18,2.7 -208.34,280.72 -227.28,280.72 -2.03,0 -3.39,-2.03 -3.39,-6.09 3.39,-41.26 53.44,-148.82 77.11,-199.55 8.12,-16.24 21.65,-41.94 28.41,-45.32 3.38,-1.35 -35.85,-27.73 -56.14,-27.73 -4.06,0 -7.45,0.67 -9.47,3.38 -48.03,62.23 -112.97,229.99 -115,254.34zm524.24 -234.73c7.44,0.68 10.82,8.12 10.82,19.62 0,25.71 -6.08,48.7 -8.79,66.97 -0.67,4.06 1.35,6.09 6.08,6.09 4.06,0 55.47,-43.29 56.82,-66.97 -6.09,-38.56 -54.12,-61.56 -87.26,-64.26 -86.59,-6.09 -193.46,173.17 -193.46,259.75 0,35.85 48.03,79.14 95.38,79.14 41.52,0 108.73,-62.04 145.55,-104.32 10.57,-12.15 18.65,-22.67 22.88,-29.61 2.03,-4.06 4.06,-19.62 -2.03,-19.62 -2.54,2.82 -5.13,5.6 -7.74,8.36 -55.79,58.87 -126.47,103.92 -161.37,103.92 -10.15,0 -17.59,-8.79 -17.59,-24.35 0,-21.65 6.09,-50.06 30.44,-104.17 28.41,-61.56 84.56,-132.58 110.26,-130.55zm189.41 -34.5c-23,0 -54.12,25.71 -81.17,61.56 -27.52,36.68 -53.38,84.64 -69.98,128.09 -5.46,14.3 -9.92,28.11 -13.11,40.87 -3.56,14.25 -5.53,27.19 -5.53,38.03 0,30.44 52.09,67.64 92.67,67.64 12.86,0 61.56,-70.35 112.29,-147.46 -9.47,23.68 -32.47,89.97 -32.47,104.85 0,15.56 43.29,43.97 68.32,48.71 -0.68,-2.71 -1.35,-7.44 -1.35,-12.18 0.67,-23 14.2,-64.26 30.44,-110.94 11.5,-33.15 28.41,-77.79 55.47,-134.61 7.44,-16.24 20.97,-41.94 27.73,-45.32 -0.67,-6.76 -37.2,-29.76 -57.5,-29.09 -3.38,0 -7.44,3.38 -8.79,5.41 -5.42,6.09 -14.21,18.94 -23,36.53 -15.56,-37.88 -57.5,-52.09 -94.02,-52.09zm-96.73 286.81c-1.36,-65.62 90.64,-246.22 140.7,-246.22 18.94,0 27.06,16.91 33.15,33.82 -49.38,83.2 -147.46,221.87 -167.08,221.87 -4.05,0 -6.76,-4.06 -6.76,-9.47zm319.28 -143.41c-37.21,16.91 -123.11,79.82 -122.44,123.11 1.36,48.03 69.68,73.73 131.23,71.7 46.68,-0.67 127.17,-26.38 127.17,-79.82 0,-3.38 -0.68,-6.76 -0.68,-9.47 -3.38,-27.06 -76.44,-138.67 -77.79,-196.84 -0.67,-18.94 6.77,-33.82 28.41,-33.82 16.24,0 27.06,9.47 31.12,29.09 4.73,20.3 0.67,52.76 -0.68,66.29 0,3.38 2.03,5.41 7.44,4.74 4.74,-0.68 59.53,-41.94 60.88,-65.62 -7.44,-35.85 -51.41,-60.88 -87.94,-60.2 -54.79,1.35 -108.91,46.67 -108.91,103.5 0,14.21 5.41,31.79 12.18,47.35zm-60.88 114.32c0.67,-31.12 23.68,-64.26 67.64,-99.44 18.94,41.26 43.97,86.59 46,118.38 0.68,27.06 -41.27,33.82 -55.47,33.82 -33.83,0 -59.53,-19.62 -58.18,-52.76z"/>
  <path class="fil8" d="M1300.07 2098.02c0,-78.99 -116.64,-60.51 -116.64,-101.51 0,-14.79 10.42,-21.85 24.2,-21.51 15.46,0.34 26.22,9.41 27.23,24.54l62.18 0c-2.35,-45.04 -36.98,-70.59 -88.4,-70.59 -49.41,0 -86.05,24.87 -86.05,69.58 -0.67,83.7 117.31,60.17 117.31,103.87 0,13.78 -10.76,22.18 -27.56,22.18 -16.13,0 -27.56,-8.74 -29.24,-26.89l-61.18 0c1.68,47.73 41.35,72.94 92.1,72.94 55.13,0 86.05,-32.94 86.05,-72.61zm22.52 -119.66l62.52 0 0 189.92 57.48 0 0 -189.92 62.52 0 0 -46.05 -182.52 0 0 46.05zm443.7 71.26c0,-70.92 -53.45,-120.67 -120.67,-120.67 -66.89,0 -121.35,49.75 -121.35,120.67 0,70.92 54.45,121.01 121.35,121.01 66.89,0 120.67,-50.08 120.67,-121.01zm-183.19 0c0,-42.02 24.2,-68.57 62.52,-68.57 37.64,0 62.18,26.55 62.18,68.57 0,41.34 -24.54,68.57 -62.18,68.57 -38.32,0 -62.52,-27.23 -62.52,-68.57zm339.83 -40.67c0,18.49 -10.09,29.58 -31.6,29.58l-35.63 0 0 -58.49 35.63 0c21.51,0 31.6,11.43 31.6,28.91zm-124.71 -76.64l0 235.97 57.48 0 0 -89.08 13.78 0 49.08 89.08 64.87 0 -54.45 -93.45c36.3,-10.76 52.44,-38.66 52.44,-68.23 0,-41.01 -28.91,-74.29 -86.72,-74.29l-96.47 0zm363.7 0l-144.54 0 0 235.97 144.54 0 0 -46.05 -87.06 0 0 -51.76 76.97 0 0 -44.37 -76.97 0 0 -47.73 87.06 0 0 -46.05zm208.74 165.72c0,-78.99 -116.64,-60.51 -116.64,-101.51 0,-14.79 10.42,-21.85 24.2,-21.51 15.46,0.34 26.22,9.41 27.23,24.54l62.18 0c-2.35,-45.04 -36.98,-70.59 -88.4,-70.59 -49.41,0 -86.05,24.87 -86.05,69.58 -0.67,83.7 117.31,60.17 117.31,103.87 0,13.78 -10.76,22.18 -27.56,22.18 -16.13,0 -27.56,-8.74 -29.24,-26.89l-61.18 0c1.68,47.73 41.35,72.94 92.1,72.94 55.13,0 86.05,-32.94 86.05,-72.61z"/>
 </g>
</svg>
